<svg width="14" height="14" viewBox="0 0 14 14" fill="none" xmlns="http://www.w3.org/2000/svg">
<path d="M0.139886 3.75936L0.841239 3.05805C0.934694 2.9644 1.04235 2.91772 1.16406 2.91772C1.28547 2.91772 1.39308 2.9644 1.48653 3.05805L6.99993 8.57116L12.5131 3.0582C12.6066 2.96455 12.7142 2.91787 12.8357 2.91787C12.9574 2.91787 13.065 2.96455 13.1584 3.0582L13.8597 3.75956C13.9533 3.85301 14 3.96062 14 4.08223C14 4.20374 13.9532 4.31134 13.8597 4.4048L7.3226 10.942C7.22914 11.0355 7.12149 11.0823 6.99993 11.0823C6.87837 11.0823 6.77091 11.0355 6.6775 10.942L0.139886 4.4048C0.0464315 4.31129 0 4.20369 0 4.08223C0 3.96062 0.0464315 3.85301 0.139886 3.75936Z" fill="#113561"/>
</svg>
