<svg width="35" height="35" viewBox="0 0 35 35" fill="none" xmlns="http://www.w3.org/2000/svg">
<g clip-path="url(#clip0)">
<path d="M7.13173 23.2656C10.5839 27.3922 14.7395 30.6413 19.4825 32.9403C21.2884 33.7961 23.7034 34.8114 26.3941 34.9855C26.5609 34.9927 26.7204 35 26.8872 35C28.6931 35 30.1435 34.3763 31.3257 33.0926C31.3329 33.0854 31.3474 33.0709 31.3547 33.0564C31.7753 32.5487 32.254 32.0918 32.7544 31.6059C33.0953 31.2795 33.4434 30.9387 33.777 30.5905C35.3217 28.9805 35.3217 26.9353 33.7625 25.3761L29.4038 21.0174C28.6641 20.2487 27.7793 19.8425 26.851 19.8425C25.9227 19.8425 25.0306 20.2487 24.2691 21.0102L21.6728 23.6065C21.4334 23.4687 21.1868 23.3454 20.9548 23.2294C20.6647 23.0843 20.3963 22.9465 20.157 22.7942C17.7927 21.293 15.646 19.3349 13.5936 16.8183C12.5565 15.5056 11.8603 14.4032 11.3744 13.2791C12.0561 12.6627 12.6943 12.0172 13.3108 11.3862C13.5283 11.1614 13.7532 10.9366 13.978 10.7118C14.7612 9.92851 15.1819 9.02196 15.1819 8.10091C15.1819 7.17986 14.7685 6.27331 13.978 5.49005L11.8168 3.32884C11.5629 3.07501 11.3236 2.82843 11.077 2.5746C10.5984 2.08143 10.098 1.57377 9.60479 1.11687C8.85779 0.384376 7.98026 0 7.05195 0C6.1309 0 5.24611 0.384376 4.4701 1.12412L1.75771 3.83651C0.771386 4.82283 0.212952 6.01948 0.096914 7.40468C-0.0408813 9.138 0.278224 10.9801 1.105 13.2066C2.37416 16.6515 4.28879 19.8498 7.13173 23.2656ZM1.8665 7.55698C1.95352 6.59242 2.3234 5.7874 3.01962 5.09117L5.71751 2.39329C6.13815 1.98715 6.6023 1.77683 7.05195 1.77683C7.49435 1.77683 7.94399 1.98715 8.35738 2.40779C8.84329 2.85744 9.30019 3.32884 9.79335 3.82926C10.0399 4.08309 10.2938 4.33693 10.5476 4.59801L12.7088 6.75922C13.1585 7.20887 13.3905 7.66577 13.3905 8.11542C13.3905 8.56506 13.1585 9.02196 12.7088 9.47161C12.484 9.69644 12.2592 9.92851 12.0343 10.1533C11.3599 10.8351 10.7289 11.4805 10.0327 12.097C10.0182 12.1115 10.0109 12.1187 9.99642 12.1332C9.39447 12.7352 9.48875 13.3081 9.6338 13.7433C9.64105 13.765 9.6483 13.7795 9.65556 13.8013C10.214 15.143 10.99 16.4194 12.2011 17.9424C14.3769 20.6258 16.6686 22.7072 19.1924 24.31C19.5043 24.5131 19.8379 24.6726 20.1498 24.8322C20.4398 24.9772 20.7082 25.115 20.9475 25.2673C20.9765 25.2818 20.9983 25.2963 21.0273 25.3108C21.2666 25.4341 21.4987 25.4921 21.7308 25.4921C22.311 25.4921 22.6881 25.1223 22.8114 24.999L25.5238 22.2866C25.9444 21.8659 26.4013 21.6411 26.851 21.6411C27.4021 21.6411 27.8518 21.982 28.1346 22.2866L32.5078 26.6525C33.3781 27.5228 33.3708 28.4656 32.4861 29.3867C32.1815 29.713 31.8624 30.0249 31.5215 30.3512C31.0138 30.8444 30.4844 31.3521 30.0057 31.925C29.1717 32.8243 28.1781 33.2449 26.8945 33.2449C26.7712 33.2449 26.6406 33.2377 26.5173 33.2304C24.1386 33.0781 21.9266 32.1498 20.2658 31.3593C15.7548 29.1763 11.795 26.0796 8.50968 22.1488C5.80454 18.8925 3.98419 15.861 2.7803 12.6119C2.0333 10.6175 1.75046 9.01471 1.8665 7.55698Z" fill="#1DA1F2"/>
</g>
<defs>
<clipPath id="clip0">
<rect width="35" height="35" fill="white"/>
</clipPath>
</defs>
</svg>
