<svg width="62" height="62" viewBox="0 0 62 62" fill="none" xmlns="http://www.w3.org/2000/svg">
<path d="M60.1546 42.6463C61.1101 42.5943 61.8695 41.8044 61.8695 40.835C61.8695 35.6081 57.6738 31.5136 52.3177 31.5136H50.5477L48.3842 21.2446C50.4719 20.3377 51.9361 18.2546 51.9361 15.8348C51.9361 12.5844 49.295 9.93994 46.0484 9.93994H37.679C36.6771 9.93994 35.8648 10.7532 35.8648 11.7563V14.0184H31.4052C30.4032 14.0184 29.591 14.8316 29.591 15.8348C29.591 16.8379 30.4032 17.6512 31.4052 17.6512H35.8648V19.9132C35.8648 20.9164 36.6771 21.7296 37.679 21.7296H38.4846C36.9825 23.506 36.0739 25.8006 36.0739 28.3049V38.6413C36.0739 38.6944 36.031 38.7374 35.978 38.7374H28.6494C28.6072 38.7374 28.5694 38.7092 28.5574 38.6686L26.5818 31.984C28.174 31.5581 29.3506 30.1019 29.3506 28.3753C29.3506 24.2754 26.0192 20.94 21.9244 20.94H5.5783C2.50252 20.9399 0 23.4454 0 26.5251C0 29.3405 2.09165 31.6747 4.80064 32.0549C1.92684 34.6287 0.114676 38.3676 0.114676 42.5228V48.1777C0.114676 49.1809 0.926973 49.9941 1.9289 49.9941H3.49864C4.34363 54.213 8.07187 57.4014 12.5307 57.4014C16.9895 57.4014 20.7177 54.213 21.5627 49.9941H43.7555C44.6005 54.213 48.3288 57.4014 52.7875 57.4014C57.8672 57.4014 61.9999 53.2637 61.9999 48.1777C62 46.1041 61.3127 44.1885 60.1546 42.6463ZM57.944 39.0186H53.8598C53.5078 38.9775 53.1505 38.954 52.7877 38.954C52.1374 38.954 51.5031 39.0228 50.8906 39.1516V35.1465H52.3178C54.9749 35.1465 57.1716 36.7457 57.944 39.0186ZM39.4931 13.5726H46.0484C47.2943 13.5726 48.3078 14.5874 48.3078 15.8347C48.3078 17.0819 47.2943 18.0967 46.0484 18.0967H39.4931V13.5726ZM28.6496 42.3701H35.9782C38.0318 42.3701 39.7024 40.6974 39.7024 38.6412V28.3048C39.7024 25.1827 41.8925 22.563 44.8153 21.9051L47.2623 33.5192V40.8021C45.4868 42.1389 44.2082 44.1022 43.7556 46.3612H25.7187C24.8714 39.8442 19.4898 34.9683 12.7727 34.9683C9.77747 34.9683 7.08846 35.9468 4.9669 37.6288C6.71937 34.3481 10.1744 32.1104 14.1429 32.1104H22.8357L25.0786 39.6993C25.5431 41.2719 27.0117 42.3701 28.6496 42.3701ZM3.8905 46.3612C4.20752 44.4288 5.03302 42.6856 6.29542 41.335C7.94314 39.5719 10.2434 38.601 12.7725 38.601C17.4518 38.601 21.232 41.8894 22.0435 46.3611H3.8905V46.3612ZM5.5783 28.4776C4.50311 28.4776 3.62833 27.6017 3.62833 26.5251C3.62833 25.4484 4.50311 24.5725 5.5783 24.5725H21.9244C24.0186 24.5725 25.7222 26.2783 25.7222 28.375C25.7067 28.4497 25.5871 28.4991 25.3644 28.4773C23.8551 28.4773 24.2866 28.4773 23.9722 28.4773C21.8045 28.4776 5.58884 28.4776 5.5783 28.4776ZM12.5307 53.7685C10.0866 53.7685 8.00575 52.1876 7.25085 49.994H17.8105C17.0556 52.1876 14.9747 53.7685 12.5307 53.7685ZM52.7877 53.7685C49.7086 53.7685 47.2037 51.2604 47.2037 48.1776C47.2037 45.0948 49.7087 42.5868 52.7877 42.5868C55.8667 42.5868 58.3717 45.0948 58.3717 48.1776C58.3717 51.2604 55.8666 53.7685 52.7877 53.7685Z" fill="#1DA1F2"/>
<path d="M52.7876 50.0061C53.7962 50.0061 54.6139 49.1876 54.6139 48.1778C54.6139 47.168 53.7962 46.3494 52.7876 46.3494C51.7791 46.3494 50.9614 47.168 50.9614 48.1778C50.9614 49.1876 51.7791 50.0061 52.7876 50.0061Z" fill="#1DA1F2"/>
<path d="M1.89028 15.6747H18.1614C19.1633 15.6747 19.9756 14.8614 19.9756 13.8583C19.9756 12.8551 19.1633 12.0419 18.1614 12.0419H1.89028C0.888347 12.0419 0.0760498 12.8551 0.0760498 13.8583C0.0760498 14.8614 0.888347 15.6747 1.89028 15.6747Z" fill="#1DA1F2"/>
<path d="M7.91738 8.23144H24.3287C25.3307 8.23144 26.143 7.41818 26.143 6.41504C26.143 5.4119 25.3307 4.59863 24.3287 4.59863H7.91738C6.91545 4.59863 6.10315 5.4119 6.10315 6.41504C6.10315 7.41818 6.91545 8.23144 7.91738 8.23144Z" fill="#1DA1F2"/>
</svg>
