<svg width="60" height="60" viewBox="0 0 60 60" fill="none" xmlns="http://www.w3.org/2000/svg">
<path d="M15.9375 24.6094C13.0296 24.6094 10.6641 26.9749 10.6641 29.8828V44.1797C10.6641 47.0876 13.0296 49.4531 15.9375 49.4531C18.8454 49.4531 21.2109 47.0876 21.2109 44.1797V29.8828C21.2109 26.9749 18.8454 24.6094 15.9375 24.6094Z" fill="#1DA1F2"/>
<path d="M7.14844 29.8829C7.14844 29.3758 7.21535 28.886 7.2982 28.4023C5.17969 29.0871 3.63281 31.0549 3.63281 33.3985V40.6641C3.63281 43.0078 5.17969 44.9756 7.2982 45.6603C7.21535 45.1767 7.14844 44.6868 7.14844 44.1798V29.8829Z" fill="#1DA1F2"/>
<path d="M44.0625 24.6094C41.1546 24.6094 38.7891 26.9749 38.7891 29.8828V44.1797C38.7891 47.0876 41.1546 49.4531 44.0625 49.4531C44.591 49.4531 45.0916 49.3514 45.5733 49.2061C44.9189 51.3751 42.9264 52.9688 40.5469 52.9688H34.9496C34.2216 50.9271 32.2887 49.4531 30 49.4531C27.0921 49.4531 24.7266 51.8187 24.7266 54.7266C24.7266 57.6345 27.0921 60 30 60C32.2887 60 34.2216 58.526 34.9496 56.4844H40.5469C45.3929 56.4844 49.3359 52.5414 49.3359 47.6953V44.1797V29.8828C49.3359 26.9749 46.9704 24.6094 44.0625 24.6094Z" fill="#1DA1F2"/>
<path d="M52.7019 28.4023C52.7848 28.886 52.8517 29.3758 52.8517 29.8829V44.1798C52.8517 44.6868 52.7848 45.1767 52.7019 45.6603C54.8204 44.9756 56.3673 43.0078 56.3673 40.6641V33.3985C56.3673 31.0549 54.8204 29.0871 52.7019 28.4023Z" fill="#1DA1F2"/>
<path d="M30 0C15.4603 0 3.63281 11.8275 3.63281 26.3672V26.4121C4.68012 25.6192 5.89184 25.039 7.22895 24.7792C8.05055 12.92 17.936 3.51562 30 3.51562C42.064 3.51562 51.9495 12.92 52.7711 24.7791C54.108 25.0389 55.3198 25.6192 56.3672 26.412V26.3672C56.3672 11.8275 44.5397 0 30 0Z" fill="#1DA1F2"/>
</svg>
