<svg width="58" height="59" viewBox="0 0 58 59" fill="none" xmlns="http://www.w3.org/2000/svg">
<g clip-path="url(#clip0)">
<path d="M53.6373 16.3677L53.6355 16.3228C53.6103 15.7693 53.5935 15.1837 53.5833 14.5321C53.536 11.3548 50.9938 8.72657 47.7954 8.54895C41.1268 8.1792 35.9681 6.01876 31.5604 1.7502L31.5227 1.71459C30.0851 0.40487 27.9163 0.40487 26.4782 1.71459L26.4406 1.7502C22.0328 6.01876 16.8741 8.1792 10.2056 8.54939C7.0076 8.72657 4.46498 11.3548 4.41763 14.5326C4.40789 15.1797 4.39063 15.7654 4.36541 16.3228L4.36276 16.427C4.2331 23.1831 4.07203 31.5914 6.90317 39.2233C8.4599 43.4202 10.8176 47.0684 13.9102 50.0673C17.4325 53.4825 22.0461 56.1938 27.6225 58.1256C27.8039 58.1885 27.9925 58.2395 28.1845 58.2778C28.4553 58.3314 28.7279 58.3582 29.0005 58.3582C29.2731 58.3582 29.5461 58.3314 29.8165 58.2778C30.0085 58.2395 30.1983 58.1881 30.3806 58.1248C35.9504 56.1894 40.5591 53.4768 44.0783 50.062C47.1697 47.0623 49.5273 43.4132 51.0854 39.2154C53.9272 31.5607 53.7665 23.1365 53.6373 16.3677ZM47.8923 38.0455C44.9063 46.0893 38.8108 51.6135 29.2576 54.9329C29.2235 54.9443 29.1872 54.9544 29.1496 54.9619C29.0509 54.9813 28.9505 54.9813 28.8505 54.9615C28.8133 54.954 28.777 54.9443 28.7434 54.9329C19.18 51.6197 13.0805 46.0986 10.0967 38.0543C7.48728 31.0195 7.63507 23.301 7.76561 16.4917L7.7665 16.4539C7.79305 15.8687 7.81075 15.2558 7.82048 14.5823C7.84172 13.1714 8.97276 12.0042 10.3954 11.9255C14.1691 11.7162 17.4843 10.9916 20.5305 9.7105C23.5727 8.43112 26.2747 6.62768 28.7898 4.19729C28.9177 4.09002 29.0837 4.08958 29.2111 4.19729C31.7267 6.62768 34.4287 8.43112 37.4704 9.7105C40.5166 10.9916 43.8319 11.7162 47.606 11.9255C49.0286 12.0042 50.1597 13.1714 50.1805 14.5827C50.1906 15.2598 50.2083 15.8726 50.2349 16.4539C50.365 23.2711 50.5093 30.9957 47.8923 38.0455Z" fill="#1DA1F2"/>
<path d="M28.9996 15.1851C21.0292 15.1851 14.5452 21.6277 14.5452 29.5463C14.5452 37.4653 21.0292 43.9079 28.9996 43.9079C36.9695 43.9079 43.454 37.4653 43.454 29.5463C43.454 21.6277 36.9695 15.1851 28.9996 15.1851ZM28.9996 40.5261C22.9059 40.5261 17.9485 35.6007 17.9485 29.5463C17.9485 23.4918 22.9059 18.5664 28.9996 18.5664C35.0929 18.5664 40.0503 23.4918 40.0503 29.5463C40.0503 35.6007 35.0929 40.5261 28.9996 40.5261Z" fill="#1DA1F2"/>
<path d="M33.1539 25.0878L26.4402 31.7581L24.6179 29.9477C23.9533 29.2873 22.8758 29.2873 22.2112 29.9477C21.547 30.608 21.547 31.6786 22.2112 32.3385L25.237 35.3448C25.5693 35.675 26.0048 35.8399 26.4402 35.8399C26.8756 35.8399 27.311 35.675 27.6433 35.3448L35.5606 27.4786C36.2248 26.8182 36.2248 25.7477 35.5606 25.0878C34.896 24.427 33.8185 24.427 33.1539 25.0878Z" fill="#1DA1F2"/>
</g>
<defs>
<clipPath id="clip0">
<rect width="58" height="57.626" fill="white" transform="translate(0 0.732422)"/>
</clipPath>
</defs>
</svg>
