<svg width="35" height="35" viewBox="0 0 35 35" fill="none" xmlns="http://www.w3.org/2000/svg">
<g clip-path="url(#clip0)">
<path d="M17.5001 34.9829C1.96629 34.9673 -5.84718 16.1024 5.12585 5.10857C11.6397 -1.67957 23.3606 -1.68066 29.8744 5.10885C40.8474 16.1037 33.033 34.9682 17.5001 34.9829ZM17.5001 2.71737C9.35831 2.71737 2.73451 9.34117 2.73451 17.483C3.54559 37.0715 31.4576 37.0658 32.2657 17.4828C32.2657 9.34124 25.6418 2.71737 17.5001 2.71737ZM23.8672 21.9166L19.5477 17.5971C19.5857 16.9592 19.3137 16.3495 18.8666 15.9538C18.867 15.9395 18.8673 15.9252 18.8673 15.9108V7.91274C18.7951 6.09876 16.2045 6.10012 16.1329 7.91274V15.9108C16.1329 15.9252 16.1332 15.9395 16.1336 15.9538C14.7039 17.2337 15.6737 19.6306 17.6142 19.5307L21.9337 23.8501C22.4676 24.3841 23.3333 24.3841 23.8671 23.8501C24.4011 23.3162 24.4011 22.4506 23.8672 21.9166Z" fill="#1DA1F2"/>
</g>
<defs>
<clipPath id="clip0">
<rect width="35" height="35" fill="white"/>
</clipPath>
</defs>
</svg>
