<svg width="134" height="155" viewBox="0 0 134 155" fill="none" xmlns="http://www.w3.org/2000/svg">
<g clip-path="url(#clip0)">
<path d="M43.353 9.11765V18.2353L55.1766 22.7941L67.0001 18.2353L70.9413 13.6765L67.0001 9.11765L55.1766 4.55882L43.353 9.11765Z" fill="#344F79"/>
<path d="M90.6471 9.11765L78.8235 4.55882L67 9.11765V18.2353L78.8235 22.7941L90.6471 18.2353V9.11765Z" fill="#1E3860"/>
<path d="M37.7794 41.0294L19.7059 61.9353V72.9412L43.353 77.5L67.0001 72.9412L70.9412 56.9853L67.0001 41.0294L52.3898 36.4706L37.7794 41.0294Z" fill="#9DDFF6"/>
<path d="M114.294 61.9353L96.2207 41.0294L81.6102 36.4706L67 41.0294V72.9412L90.6471 77.5L114.294 72.9412V61.9353Z" fill="#86BEEC"/>
<path d="M19.7059 127.647V135.549C19.7059 146.274 27.2491 155 36.5216 155H67.0001L70.9412 141.324L67.0001 127.647L43.353 123.088L19.7059 127.647Z" fill="#9DDFF6"/>
<path d="M114.294 135.549V127.647L90.6471 123.088L67 127.647V155H97.4784C106.75 155 114.294 146.275 114.294 135.549Z" fill="#86BEEC"/>
<path d="M19.7059 72.9412H67V127.647H19.7059V72.9412Z" fill="#F4F1F1"/>
<path d="M67 72.9412H114.294V127.647H67V72.9412Z" fill="#E7DFDD"/>
<path d="M43.353 86.6176V95.7353H67.0001L70.9413 91.1765L67.0001 86.6176H43.353Z" fill="#FF4A4A"/>
<path d="M67 86.6176H90.6471V95.7353H67V86.6176Z" fill="#D10763"/>
<path d="M43.353 104.853V113.971H67.0001L70.9413 109.412L67.0001 104.853H43.353Z" fill="#FF4A4A"/>
<path d="M67 104.853H90.6471V113.971H67V104.853Z" fill="#D10763"/>
<path d="M27.5883 18.2353V41.0294H67L70.9412 29.6323L67 18.2353H27.5883Z" fill="#516992"/>
<path d="M67 18.2353H106.412V41.0294H67V18.2353Z" fill="#344F79"/>
<path d="M43.353 0V9.11765H67.0001L70.9413 4.55882L67.0001 0H43.353Z" fill="#FFEA94"/>
<path d="M67 0H90.6471V9.11765H67V0Z" fill="#FFD92E"/>
</g>
<defs>
<clipPath id="clip0">
<rect width="134" height="155" fill="white"/>
</clipPath>
</defs>
</svg>
