<svg width="161" height="155" viewBox="0 0 161 155" fill="none" xmlns="http://www.w3.org/2000/svg">
<path d="M123.417 60.3229L80.4999 71.5461L37.5834 60.3229C38.7626 49.7786 44.0297 40.1759 52.4885 33.2433V23.2167C52.4885 20.707 54.6016 18.6757 57.2052 18.6757H103.795C106.398 18.6757 108.511 20.707 108.511 23.2167V33.2433C116.97 40.1759 122.237 49.7786 123.417 60.3229Z" fill="#64E1DC"/>
<path d="M108.511 33.2433V23.2167C108.511 20.707 106.398 18.6757 103.795 18.6757H80.5V71.5461L123.417 60.3229C122.237 49.7786 116.97 40.1759 108.511 33.2433V33.2433Z" fill="#00C8C7"/>
<path d="M37.3319 129.389V140.55C37.3319 148.518 44.0643 155 52.3408 155H108.659C116.936 155 123.668 148.518 123.668 140.55V129.389L80.5 122.607L37.3319 129.389Z" fill="#64E1DC"/>
<path d="M108.659 155C116.936 155 123.668 148.518 123.668 140.55V129.389L80.5 122.607V155H108.659Z" fill="#00C8C7"/>
<path d="M123.668 64.8639V129.389H37.3319V64.8639C37.3319 63.3351 37.4168 61.8184 37.5835 60.3229H123.417C123.583 61.8184 123.668 63.3351 123.668 64.8639Z" fill="#EBF6FA"/>
<path d="M80.5 60.3229V129.389H123.668V64.8639C123.668 63.3351 123.583 61.8184 123.417 60.3229H80.5Z" fill="#DBEEFF"/>
<path d="M109.92 27.7571H51.0805C46.11 27.7571 42.0664 23.8639 42.0664 19.0786V8.67849C42.0664 3.89316 46.1103 0 51.0805 0H109.919C114.89 0 118.934 3.89316 118.934 8.67849V19.0786C118.934 23.8639 114.89 27.7571 109.92 27.7571Z" fill="#FFDB66"/>
<path d="M89.5355 94.8555C92.4977 92.4296 94.8296 88.9455 94.8296 83.373C94.8296 80.8652 92.7178 78.832 90.1128 78.832C87.5079 78.832 85.3961 80.8652 85.3961 83.373C85.3961 86.5551 84.0823 87.8986 80.5003 89.7529C76.9184 87.8986 75.6046 86.5551 75.6046 83.373C75.6046 80.8652 73.4927 78.832 70.8878 78.832C68.2829 78.832 66.171 80.8652 66.171 83.373C66.171 88.9452 68.503 92.4296 71.4652 94.8555C68.503 97.2813 66.171 100.766 66.171 106.338C66.171 108.846 68.2829 110.879 70.8878 110.879C73.4927 110.879 75.6046 108.846 75.6046 106.338C75.6046 103.156 76.9184 101.812 80.5003 99.9577C84.0823 101.812 85.3961 103.156 85.3961 106.338C85.3961 108.846 87.5079 110.879 90.1128 110.879C92.7178 110.879 94.8296 108.846 94.8296 106.338C94.8293 100.766 92.4977 97.2813 89.5355 94.8555V94.8555Z" fill="#E6E6E6"/>
<path d="M89.5355 94.8555C92.4977 92.4296 94.8296 88.9455 94.8296 83.373C94.8296 80.8652 92.7178 78.832 90.1128 78.832C87.5079 78.832 85.3961 80.8652 85.3961 83.373C85.3961 86.5551 84.0823 87.8986 80.5003 89.7529C76.9184 87.8986 75.6046 86.5551 75.6046 83.373C75.6046 80.8652 73.4927 78.832 70.8878 78.832C68.2829 78.832 66.171 80.8652 66.171 83.373C66.171 88.9452 68.503 92.4296 71.4652 94.8555C68.503 97.2813 66.171 100.766 66.171 106.338C66.171 108.846 68.2829 110.879 70.8878 110.879C73.4927 110.879 75.6046 108.846 75.6046 106.338C75.6046 103.156 76.9184 101.812 80.5003 99.9577C84.0823 101.812 85.3961 103.156 85.3961 106.338C85.3961 108.846 87.5079 110.879 90.1128 110.879C92.7178 110.879 94.8296 108.846 94.8296 106.338C94.8293 100.766 92.4977 97.2813 89.5355 94.8555V94.8555Z" fill="#FF475A"/>
<path d="M85.3957 106.338C85.3957 108.846 87.5076 110.879 90.1125 110.879C92.7174 110.879 94.8293 108.846 94.8293 106.338C94.8293 100.766 92.4973 97.2816 89.5352 94.8557C92.4973 92.4299 94.8293 88.9458 94.8293 83.3733C94.8293 80.8655 92.7174 78.8323 90.1125 78.8323C87.5076 78.8323 85.3957 80.8655 85.3957 83.3733C85.3957 86.5554 84.0819 87.8989 80.5 89.7532V99.958C84.0819 101.812 85.3957 103.156 85.3957 106.338V106.338Z" fill="#E0266D"/>
<path d="M109.92 0H80.5V27.7571H109.92C114.89 27.7571 118.934 23.8639 118.934 19.0786V8.67849C118.934 3.89316 114.89 0 109.92 0Z" fill="#FFBC36"/>
</svg>
