<svg width="166" height="155" viewBox="0 0 166 155" fill="none" xmlns="http://www.w3.org/2000/svg">
<g clip-path="url(#clip0)">
<path d="M58.5883 27.3529V36.4706L70.7941 39.8137L83 36.4706L86.2549 31.9118L83 27.3529L70.7941 24.6176L58.5883 27.3529Z" fill="#73CA7A"/>
<path d="M107.412 27.353L95.2059 24.3137L83 27.353V36.4706L95.2059 39.5098L107.412 36.4706C107.412 33.2819 107.412 30.5417 107.412 27.353Z" fill="#5FA794"/>
<path d="M53.8687 36.4706C43.1301 36.4706 34.3728 44.5382 34.1798 54.5211C34.1775 54.633 37.4314 87.2687 37.4314 87.2687L34.1765 118.344V132.021L58.5883 135.06L83 132.021L86.5804 84.3382L83 36.4706C79.4792 36.4706 57.4129 36.4706 53.8687 36.4706V36.4706Z" fill="#B9E68B"/>
<path d="M131.824 54.8579C131.824 44.7196 122.99 36.4706 112.131 36.4706C108.611 36.4706 86.5443 36.4706 83 36.4706V132.021L107.412 135.06L131.824 132.021C131.824 129.834 131.824 56.985 131.824 54.8579Z" fill="#73CA7A"/>
<path d="M60.3784 0C51.3151 0 43.9412 6.88474 43.9412 15.348V27.3529H68.3529L73.2353 24.3137L78.1176 27.3529H83L86.2549 13.6765L83 0H78.172L73.3166 3.03922L68.3529 0H60.3784Z" fill="#004C9C"/>
<path d="M122.059 15.348C122.059 6.88534 114.686 0 105.622 0H97.6471L92.6833 3.03922L87.8824 0H83V27.3529H87.8824L92.6563 24.3137L97.6471 27.3529H122.059C122.059 23.1546 122.059 19.5464 122.059 15.348Z" fill="#00366D"/>
<path d="M34.1765 54.5211V118.345H83.0001L86.255 86.4329L83.0001 54.5211H58.5883H34.1765Z" fill="#FFF5F5"/>
<path d="M112.294 54.5211C108.75 54.5211 86.5677 54.5211 83 54.5211V118.345H112.294C112.294 114.8 112.294 58.066 112.294 54.5211Z" fill="#ECE6F2"/>
<path d="M83.0001 81.874H73.2353V72.7564H63.4706V81.874H53.7059V90.9917H63.4706V100.109H73.2353V90.9917H83.0001V81.874Z" fill="#FF8066"/>
<path d="M87.8823 27.3529H97.647C97.647 24.0435 97.647 3.33128 97.647 0C94.232 0 91.2974 0 87.8823 0V27.3529Z" fill="#01223C"/>
<path d="M68.353 0H78.1177V27.3529H68.353V0Z" fill="#00366D"/>
<path d="M34.1765 132.021V136.613C34.1765 146.751 43.0103 155 53.8687 155H83.0001L86.255 143.51L83.0001 132.021C79.7035 132.021 37.4734 132.021 34.1765 132.021V132.021Z" fill="#73CA7A"/>
<path d="M131.824 136.613C131.824 135.007 131.824 133.627 131.824 132.021C128.527 132.021 86.2969 132.021 83 132.021V155H112.131C122.989 155 131.824 146.752 131.824 136.613Z" fill="#5FA794"/>
</g>
<defs>
<clipPath id="clip0">
<rect width="166" height="155" fill="white"/>
</clipPath>
</defs>
</svg>
