<svg width="71" height="68" viewBox="0 0 71 68" fill="none" xmlns="http://www.w3.org/2000/svg">
<path d="M30.8692 16.6991L30.0649 21.0787C30.0384 21.2237 30.0551 21.3729 30.1133 21.5093C30.1714 21.6458 30.2687 21.7641 30.394 21.8509C30.5194 21.9376 30.6679 21.9894 30.8227 22.0004C30.9775 22.0114 31.1324 21.9811 31.27 21.9129L35.4253 19.8539L39.5701 21.932C39.7073 22.0007 39.862 22.0318 40.0168 22.0215C40.1716 22.0113 40.3203 21.9602 40.4461 21.874C40.5719 21.7879 40.6698 21.6701 40.7287 21.5339C40.7876 21.3978 40.8052 21.2488 40.7794 21.1037L39.998 16.7205L43.3633 13.6253C43.4747 13.5228 43.5537 13.3928 43.5912 13.25C43.6288 13.1072 43.6235 12.9572 43.5759 12.8171C43.5283 12.677 43.4403 12.5524 43.3218 12.4572C43.2034 12.3621 43.0592 12.3002 42.9057 12.2787L38.2679 11.6284L36.2031 7.63729C36.1347 7.50516 36.0287 7.3938 35.8971 7.3158C35.7654 7.2378 35.6134 7.19628 35.4582 7.19592H35.4561C35.3012 7.19593 35.1493 7.23694 35.0177 7.31434C34.886 7.39173 34.7797 7.50245 34.7109 7.634L32.6258 11.6154L27.984 12.244C27.8303 12.2648 27.6858 12.326 27.5669 12.4206C27.448 12.5152 27.3593 12.6394 27.311 12.7793C27.2627 12.9192 27.2566 13.0691 27.2934 13.2121C27.3303 13.3551 27.4086 13.4855 27.5195 13.5885L30.8692 16.6991ZM33.294 13.1187C33.4276 13.1006 33.5545 13.052 33.6639 12.9771C33.7732 12.9021 33.8617 12.8031 33.9217 12.6885L35.4516 9.76722L36.9666 12.6951C37.026 12.8099 37.114 12.9093 37.2229 12.9847C37.3318 13.0601 37.4585 13.1093 37.5919 13.128L40.9952 13.6048L38.5259 15.8768C38.429 15.9659 38.3565 16.0759 38.3145 16.1975C38.2725 16.319 38.2623 16.4484 38.2848 16.5746L38.8582 19.7906L35.817 18.2655C35.6978 18.2057 35.565 18.1743 35.4301 18.174C35.2952 18.1737 35.1622 18.2045 35.0427 18.2638L31.9939 19.7744L32.5836 16.561C32.6067 16.435 32.5972 16.3056 32.5558 16.1839C32.5144 16.0622 32.4424 15.9518 32.3461 15.8624L29.8885 13.5799L33.294 13.1187Z" fill="white"/>
<path d="M52.4864 19.5908L51.7801 23.4385C51.7535 23.5835 51.7702 23.7327 51.8284 23.8692C51.8865 24.0056 51.9838 24.124 52.1091 24.2108C52.2345 24.2976 52.383 24.3494 52.5378 24.3604C52.6926 24.3713 52.8476 24.341 52.9852 24.2728L56.6358 22.4639L60.2771 24.2895C60.4143 24.3583 60.569 24.3893 60.7238 24.3791C60.8787 24.3688 61.0274 24.3178 61.1532 24.2316C61.279 24.1454 61.3768 24.0276 61.4357 23.8915C61.4946 23.7554 61.5122 23.6063 61.4864 23.4612L60.8 19.6105L63.7565 16.8912C63.8679 16.7887 63.9469 16.6587 63.9844 16.5159C64.022 16.3731 64.0167 16.2232 63.9691 16.0831C63.9215 15.943 63.8335 15.8183 63.715 15.7232C63.5966 15.628 63.4524 15.5662 63.2989 15.5446L59.2241 14.9738L57.4102 11.467C57.3418 11.3348 57.2358 11.2235 57.1041 11.1455C56.9724 11.0675 56.8204 11.026 56.6651 11.0256H56.6631C56.5082 11.0256 56.3564 11.0666 56.2247 11.144C56.0931 11.2214 55.9868 11.3322 55.9179 11.4637L54.0861 14.961L50.0084 15.5132C49.8548 15.534 49.7103 15.5952 49.5914 15.6898C49.4724 15.7844 49.3838 15.9086 49.3354 16.0485C49.2871 16.1883 49.281 16.3382 49.3178 16.4812C49.3546 16.6242 49.4329 16.7545 49.5437 16.8576L52.4864 19.5908ZM54.7542 16.4647C54.8878 16.4466 55.0147 16.398 55.124 16.3231C55.2334 16.2481 55.3218 16.1491 55.3818 16.0345L56.6584 13.5969L57.9227 16.0404C57.9821 16.1552 58.0701 16.2546 58.179 16.3301C58.2879 16.4055 58.4145 16.4547 58.548 16.4734L61.3877 16.8712L59.3273 18.7663C59.2305 18.8554 59.158 18.9654 59.116 19.0869C59.074 19.2085 59.0638 19.3379 59.0863 19.464L59.5647 22.1477L57.027 20.8754C56.9078 20.8155 56.775 20.784 56.6401 20.7837C56.5052 20.7834 56.3722 20.8142 56.2527 20.8735L53.7086 22.1341L54.2008 19.452C54.2239 19.326 54.2143 19.1966 54.1729 19.0749C54.1315 18.9531 54.0596 18.8428 53.9632 18.7533L51.9125 16.8498L54.7542 16.4647Z" fill="white"/>
<path d="M10.0696 19.5908L9.36351 23.4385C9.33689 23.5835 9.35359 23.7327 9.41174 23.8692C9.4699 24.0057 9.56717 24.1241 9.69256 24.2109C9.81796 24.2977 9.96647 24.3495 10.1213 24.3604C10.2761 24.3714 10.4311 24.3411 10.5687 24.2729L14.2192 22.4639L17.8609 24.2895C17.9981 24.3584 18.1529 24.3894 18.3077 24.3792C18.4625 24.369 18.6113 24.3179 18.7371 24.2317C18.8629 24.1455 18.9608 24.0277 19.0197 23.8916C19.0786 23.7554 19.0962 23.6064 19.0704 23.4612L18.3838 19.6105L21.3403 16.8912C21.4517 16.7887 21.5307 16.6587 21.5683 16.5159C21.6058 16.3731 21.6005 16.2232 21.5529 16.0831C21.5053 15.943 21.4173 15.8183 21.2989 15.7232C21.1804 15.628 21.0363 15.5662 20.8827 15.5446L16.807 14.9732L14.9933 11.467C14.9249 11.3349 14.8189 11.2235 14.6873 11.1455C14.5556 11.0675 14.4036 11.026 14.2484 11.0256H14.2463C14.0914 11.0256 13.9395 11.0666 13.8079 11.144C13.6762 11.2214 13.5699 11.3322 13.5011 11.4637L11.6692 14.961L7.59156 15.5132C7.4379 15.534 7.29345 15.5952 7.17454 15.6898C7.05563 15.7844 6.967 15.9087 6.91867 16.0485C6.87035 16.1884 6.86424 16.3383 6.90106 16.4812C6.93788 16.6242 7.01614 16.7545 7.12701 16.8576L10.0696 19.5908ZM12.3376 16.4647C12.4713 16.4467 12.5983 16.3982 12.7077 16.3232C12.8172 16.2483 12.9057 16.1493 12.9658 16.0346L14.2425 13.5971L15.5067 16.0406C15.5661 16.1554 15.6541 16.2548 15.763 16.3302C15.872 16.4056 15.9986 16.4548 16.1321 16.4735L18.9718 16.8714L16.9114 18.7665C16.8146 18.8555 16.742 18.9655 16.7 19.0871C16.658 19.2086 16.6478 19.338 16.6703 19.4641L17.1487 22.1478L14.611 20.8755C14.4918 20.8156 14.359 20.7842 14.2241 20.7839C14.0891 20.7835 13.9562 20.8144 13.8366 20.8736L11.292 22.1341L11.784 19.452C11.8071 19.326 11.7976 19.1966 11.7563 19.0749C11.7149 18.9532 11.643 18.8428 11.5466 18.7533L9.49594 16.8498L12.3376 16.4647Z" fill="white"/>
<path d="M35.5 25.0731C33.7312 25.075 32.0355 25.7421 30.7848 26.9279C29.5341 28.1137 28.8306 29.7215 28.8286 31.3985V35.0894C28.8286 36.767 29.5315 38.3758 30.7826 39.562C32.0337 40.7482 33.7306 41.4146 35.5 41.4146C37.2693 41.4146 38.9662 40.7482 40.2173 39.562C41.4685 38.3758 42.1713 36.767 42.1713 35.0894V31.3985C42.1694 29.7215 41.4658 28.1137 40.2152 26.9279C38.9645 25.7421 37.2687 25.075 35.5 25.0731ZM40.5073 35.0894C40.5073 36.3485 39.9797 37.5561 39.0407 38.4464C38.1016 39.3367 36.828 39.8369 35.5 39.8369C34.172 39.8369 32.8983 39.3367 31.9593 38.4464C31.0202 37.5561 30.4927 36.3485 30.4927 35.0894V31.3985C30.4927 30.1394 31.0202 28.9318 31.9593 28.0415C32.8983 27.1512 34.172 26.651 35.5 26.651C36.828 26.651 38.1016 27.1512 39.0407 28.0415C39.9797 28.9318 40.5073 30.1394 40.5073 31.3985V35.0894Z" fill="white"/>
<path d="M56.2036 28.2009C54.5756 28.2027 53.0148 28.8166 51.8637 29.9081C50.7125 30.9995 50.0649 32.4793 50.0631 34.0229V37.3781C50.0631 38.9222 50.7101 40.4031 51.8616 41.4949C53.0132 42.5867 54.5751 43.2001 56.2036 43.2001C57.8322 43.2001 59.3941 42.5867 60.5456 41.4949C61.6972 40.4031 62.3442 38.9222 62.3442 37.3781V34.0229C62.3423 32.4793 61.6948 30.9995 60.5436 29.9081C59.3924 28.8166 57.8316 28.2027 56.2036 28.2009ZM60.6801 37.378C60.6801 38.5036 60.2085 39.5832 59.369 40.3791C58.5295 41.1751 57.3909 41.6222 56.2036 41.6222C55.0164 41.6222 53.8778 41.1751 53.0383 40.3791C52.1988 39.5832 51.7272 38.5036 51.7272 37.378V34.0227C51.7272 32.8971 52.1988 31.8176 53.0383 31.0216C53.8778 30.2257 55.0164 29.7785 56.2036 29.7785C57.3909 29.7785 58.5295 30.2257 59.369 31.0216C60.2085 31.8176 60.6801 32.8971 60.6801 34.0227V37.378Z" fill="white"/>
<path d="M63.2814 44.3787H61.0442C60.8438 44.3785 60.6516 44.3029 60.5099 44.1686C60.3682 44.0342 60.2884 43.852 60.2882 43.662C60.2881 43.4763 60.2189 43.2965 60.0928 43.1544C59.9667 43.0122 59.7917 42.9169 59.5987 42.885C59.4057 42.8532 59.207 42.887 59.0377 42.9804C58.8684 43.0738 58.7392 43.2208 58.673 43.3956L57.7833 45.7459C57.6668 46.0538 57.4523 46.3198 57.1695 46.5071C56.8867 46.6945 56.5495 46.794 56.2045 46.7919C55.8595 46.7898 55.5237 46.6862 55.2435 46.4954C54.9632 46.3046 54.7524 46.036 54.64 45.7267L53.7893 43.3864C53.7433 43.26 53.6641 43.1466 53.5593 43.0572C53.4544 42.9677 53.3272 42.9049 53.1897 42.8749C53.0522 42.8448 52.9089 42.8484 52.7733 42.8853C52.6376 42.9222 52.5141 42.9911 52.4144 43.0857L52.3943 43.1047C52.2383 43.2526 52.1506 43.4532 52.1506 43.6624C52.1504 43.8524 52.0706 44.0346 51.9289 44.169C51.7871 44.3033 51.595 44.3789 51.3946 44.3791H49.1252C48.766 44.3791 48.4073 44.4051 48.0523 44.4567C46.7007 43.4281 45.019 42.868 43.2859 42.8691H40.825C40.5823 42.8691 40.3495 42.7776 40.1778 42.6149C40.0062 42.4522 39.9098 42.2315 39.9098 42.0013C39.9097 41.8156 39.8405 41.6358 39.7144 41.4937C39.5883 41.3516 39.4133 41.2562 39.2203 41.2244C39.0273 41.1925 38.8287 41.2263 38.6593 41.3197C38.49 41.4131 38.3609 41.5601 38.2947 41.735L37.3166 44.3204C37.1826 44.6745 36.9359 44.9803 36.6107 45.1958C36.2855 45.4112 35.8978 45.5256 35.5011 45.5232C35.1044 45.5208 34.7182 45.4017 34.396 45.1823C34.0737 44.9629 33.8312 44.6541 33.702 44.2985L32.7661 41.7235C32.7201 41.597 32.6408 41.4836 32.5359 41.3941C32.4309 41.3046 32.3036 41.2419 32.166 41.2119C32.0284 41.1818 31.885 41.1855 31.7494 41.2225C31.6137 41.2596 31.4902 41.3287 31.3905 41.4235L31.3684 41.4444C31.2128 41.5923 31.1255 41.7926 31.1255 42.0015C31.1255 42.2316 31.029 42.4523 30.8574 42.615C30.6858 42.7778 30.453 42.8692 30.2102 42.8692H27.7141C25.9806 42.868 24.2986 43.4283 22.9469 44.4573C22.5921 44.4055 22.2337 44.3794 21.8748 44.3791H19.6376C19.4372 44.3789 19.245 44.3033 19.1033 44.169C18.9616 44.0346 18.8818 43.8524 18.8816 43.6624C18.8815 43.4767 18.8123 43.2969 18.6862 43.1548C18.5601 43.0126 18.3851 42.9173 18.1921 42.8854C17.9991 42.8536 17.8005 42.8874 17.6311 42.9808C17.4618 43.0742 17.3327 43.2212 17.2665 43.396L16.3771 45.7459C16.2606 46.0538 16.0461 46.3197 15.7633 46.5071C15.4804 46.6944 15.1433 46.7939 14.7983 46.7918C14.4533 46.7897 14.1175 46.6861 13.8372 46.4953C13.557 46.3045 13.3461 46.036 13.2337 45.7267L12.383 43.3864C12.337 43.2599 12.2578 43.1466 12.1529 43.0571C12.048 42.9675 11.9208 42.9048 11.7832 42.8748C11.6457 42.8447 11.5024 42.8483 11.3667 42.8852C11.2311 42.9222 11.1075 42.9912 11.0078 43.0859L10.9878 43.1048C10.8319 43.2527 10.7443 43.4533 10.7443 43.6624C10.7441 43.8524 10.6644 44.0346 10.5227 44.1689C10.3809 44.3033 10.1888 44.3789 9.9884 44.3791H7.71875C5.85623 44.3811 4.07059 45.0835 2.75355 46.3321C1.4365 47.5807 0.695598 49.2737 0.693359 51.0396V60.2669C0.693359 60.4761 0.78102 60.6768 0.937056 60.8247C1.09309 60.9726 1.30472 61.0557 1.52539 61.0557H69.4746C69.6953 61.0557 69.9069 60.9726 70.0629 60.8247C70.219 60.6768 70.3066 60.4761 70.3066 60.2669V51.0396C70.3046 49.2736 69.5637 47.5806 68.2467 46.3319C66.9297 45.0831 65.144 44.3807 63.2814 44.3787ZM20.0696 50.1169V59.478H2.35742V51.0396C2.35904 49.6919 2.92441 48.3999 3.9295 47.4469C4.9346 46.494 6.29734 45.9579 7.71875 45.9564H9.98812C10.4949 45.9571 10.989 45.8061 11.3999 45.5249L11.6602 46.2413C11.8849 46.8594 12.3065 47.3961 12.8666 47.7774C13.4268 48.1586 14.0979 48.3656 14.7875 48.3698C15.477 48.3739 16.1509 48.175 16.7161 47.8006C17.2814 47.4261 17.7101 46.8945 17.943 46.2792L18.228 45.5265C18.6168 45.792 19.0803 45.9414 19.5593 45.9558C19.5744 45.9558 19.5898 45.9568 19.6052 45.9568H21.4597C20.554 47.1739 20.0683 48.6273 20.0696 50.1169ZM49.2664 59.478H21.7336V50.1169C21.7355 48.6136 22.3661 47.1724 23.4873 46.1094C24.6085 45.0464 26.1286 44.4485 27.7141 44.4468H30.2102C30.789 44.4474 31.3509 44.2626 31.805 43.9223L32.1285 44.8128C32.37 45.4773 32.8231 46.0544 33.4253 46.4642C34.0275 46.8741 34.749 47.0967 35.4903 47.1012C36.2316 47.1056 36.9561 46.8918 37.5637 46.4892C38.1714 46.0866 38.6322 45.5151 38.8826 44.8536L39.2342 43.9248C39.6653 44.2469 40.194 44.4294 40.7426 44.4455C40.7582 44.4464 40.7738 44.4468 40.7895 44.4468H43.2856C44.8712 44.4485 46.3913 45.0465 47.5125 46.1095C48.6337 47.1725 49.2643 48.6138 49.2661 50.1171L49.2664 59.478ZM68.6426 59.478H50.9304V50.1169C50.9317 48.6271 50.4459 47.1736 49.54 45.9564H51.3946C51.9013 45.9571 52.3953 45.806 52.8062 45.5249L53.0665 46.2413C53.2912 46.8594 53.7128 47.3961 54.2729 47.7774C54.8331 48.1586 55.5043 48.3656 56.1938 48.3698C56.8833 48.3739 57.5572 48.175 58.1225 47.8006C58.6877 47.4261 59.1164 46.8945 59.3493 46.2792L59.6343 45.5265C60.0231 45.792 60.4866 45.9414 60.9656 45.9558C60.9807 45.9558 60.9961 45.9568 61.0113 45.9568H63.2808C64.7022 45.9582 66.065 46.4942 67.0702 47.447C68.0754 48.3999 68.6409 49.6919 68.6426 51.0396V59.478Z" fill="white"/>
<path d="M8.65613 34.0229V37.3781C8.65613 38.1427 8.81496 38.8998 9.12355 39.6061C9.43214 40.3125 9.88445 40.9543 10.4546 41.4949C11.0248 42.0355 11.7018 42.4643 12.4468 42.7569C13.1918 43.0495 13.9903 43.2001 14.7967 43.2001C15.603 43.2001 16.4015 43.0495 17.1465 42.7569C17.8915 42.4643 18.5685 42.0355 19.1387 41.4949C19.7089 40.9543 20.1612 40.3125 20.4698 39.6061C20.7784 38.8998 20.9372 38.1427 20.9372 37.3781V34.0229C20.9372 32.4788 20.2902 30.998 19.1387 29.9061C17.9871 28.8143 16.4252 28.2009 14.7967 28.2009C13.1681 28.2009 11.6062 28.8143 10.4546 29.9061C9.30307 30.998 8.65613 32.4788 8.65613 34.0229ZM19.2731 34.0229V37.3781C19.2731 38.5038 18.8015 39.5833 17.962 40.3793C17.1225 41.1752 15.9839 41.6224 14.7967 41.6224C13.6094 41.6224 12.4708 41.1752 11.6313 40.3793C10.7918 39.5833 10.3202 38.5038 10.3202 37.3781V34.0229C10.3202 32.8972 10.7918 31.8177 11.6313 31.0217C12.4708 30.2258 13.6094 29.7787 14.7967 29.7787C15.9839 29.7787 17.1225 30.2258 17.962 31.0217C18.8015 31.8177 19.2731 32.8972 19.2731 34.0229Z" fill="white"/>
</svg>
