<svg width="56" height="54" viewBox="0 0 56 54" fill="none" xmlns="http://www.w3.org/2000/svg">
<g clip-path="url(#clip0)">
<path d="M0.00192261 10.4446C0.0577049 5.93829 2.48998 3.45644 6.85088 3.45644C8.53875 3.45644 10.1652 3.82893 11.2284 4.13972C11.1225 2.29781 11.1209 1.16084 11.1209 1.10433L11.1208 0.315796H44.8784V1.10422C44.8784 1.13119 44.8755 2.28609 44.7685 4.14065C45.8316 3.82966 47.4595 3.45644 49.149 3.45644C53.5098 3.45644 55.9422 5.93818 55.998 10.4446C56.0529 14.8777 54.9865 18.8239 52.8286 22.1737C50.71 25.4626 48.0021 27.4444 46.1035 28.5275C43.0625 30.2626 40.0233 30.6268 38.0091 30.6268C37.5125 30.6268 37.0341 30.6046 36.5867 30.5608C36.557 30.5579 36.5296 30.5546 36.5006 30.5516C35.5267 31.546 34.4768 32.3425 33.355 32.9344C32.528 33.3707 31.9528 34.1315 31.7557 35.006C32.8707 35.3351 33.6826 36.3228 33.6826 37.4868C33.6826 38.677 32.8336 39.6822 31.68 39.9881V43.2971H36.1799V46.7504H40.6205V53.4045H15.3788V46.7504H19.8195V43.2971H24.3194V39.9881C23.1657 39.6821 22.3166 38.677 22.3166 37.4868C22.3166 36.3227 23.1285 35.3351 24.2436 35.006C24.0465 34.1315 23.4714 33.3708 22.6443 32.9344C21.5252 32.3441 20.4681 31.5432 19.4966 30.552C19.1524 30.5882 18.6363 30.6267 17.9909 30.6267C17.9907 30.6267 17.9908 30.6267 17.9905 30.6267C15.9765 30.6267 12.9374 30.2623 9.89664 28.5274C7.99811 27.4441 5.2901 25.4624 3.1715 22.1736C1.01331 18.8239 -0.0529823 14.8776 0.00192261 10.4446ZM12.7977 1.89265C12.8051 2.18104 12.817 2.54358 12.8351 2.96791H43.1607C43.1796 2.54368 43.1921 2.18063 43.2002 1.89265H12.7977ZM11.6665 9.13224C10.5398 8.77665 9.07939 8.41806 7.77116 8.41806C6.67423 8.41806 5.88444 8.67212 5.42364 9.1732C4.89405 9.74915 4.72331 10.7167 4.91647 12.0492C5.7207 17.5998 8.25919 21.9326 12.0646 24.2492C13.3901 25.0562 14.8176 25.3895 16.014 25.508C13.4834 20.465 12.2586 14.1376 11.6665 9.13224ZM43.4771 14.6245C42.659 18.7844 41.5296 22.3566 40.12 25.2419C40.0764 25.3315 40.032 25.4197 39.9878 25.508C41.1837 25.3892 42.6104 25.0559 43.9353 24.2494C47.7406 21.9327 50.2792 17.6 51.0834 12.0494C51.2765 10.7168 51.1059 9.74915 50.5762 9.17341C50.1154 8.67233 49.3255 8.41837 48.2286 8.41837C46.9193 8.41837 45.4576 8.77748 44.3304 9.13328C44.129 10.8404 43.8537 12.7089 43.4771 14.6245ZM38.0091 29.0499C39.8125 29.0499 42.5321 28.7248 45.2458 27.1765C48.0212 25.593 54.4628 20.7944 54.3348 10.4631C54.2895 6.80947 52.5932 5.0334 49.149 5.0334C47.307 5.0334 45.4878 5.55989 44.6562 5.8376C44.6148 6.36657 44.5683 6.8971 44.5169 7.42545C45.6473 7.11061 46.9791 6.8412 48.2286 6.8412C49.8275 6.8412 51.039 7.27705 51.8298 8.13672C52.6894 9.07137 52.9927 10.4599 52.7313 12.2638C52.2835 15.3541 51.3477 18.0856 49.9498 20.3821C48.6153 22.5745 46.894 24.3221 44.8341 25.576C42.822 26.801 40.6458 27.1099 39.0934 27.1395C39.0882 27.1482 39.0828 27.1565 39.0776 27.1651C38.9925 27.3064 38.9065 27.4454 38.8197 27.5826C38.7926 27.6254 38.7654 27.6679 38.7382 27.7103C38.6554 27.8393 38.5719 27.9671 38.4876 28.0923C38.4559 28.1393 38.4237 28.1853 38.3918 28.232C38.3344 28.3156 38.2766 28.3986 38.2184 28.4806C38.1622 28.56 38.1058 28.6385 38.049 28.7161C37.9933 28.7921 37.9375 28.8677 37.8813 28.9423C37.855 28.9773 37.829 29.0137 37.8027 29.0484C37.8696 29.0494 37.9384 29.0499 38.0091 29.0499ZM17.0419 48.3275V51.8277H38.9571V48.3275H36.1798H19.8194H17.0419ZM24.3192 44.8742H21.4826V46.7505H34.5165V44.8742H31.6799H24.3192ZM30.0167 43.2972V40.0844H25.9824V43.2972H30.0167ZM23.9797 37.4868C23.9797 38.0496 24.4627 38.5075 25.0561 38.5075H30.9429C31.5365 38.5075 32.0194 38.0496 32.0194 37.4868C32.0194 36.9241 31.5365 36.4662 30.9429 36.4662H25.0561C24.4625 36.4662 23.9797 36.9241 23.9797 37.4868ZM19.8197 28.4728C19.8289 28.4842 19.8381 28.4955 19.8473 28.5068C19.9291 28.6071 20.0115 28.705 20.0944 28.8016C20.1148 28.8251 20.1348 28.8491 20.1553 28.8725C20.2464 28.9775 20.3382 29.0801 20.4305 29.1803C20.435 29.1851 20.4392 29.19 20.4437 29.1948C21.3711 30.1979 22.3834 30.9923 23.4528 31.5565C24.7709 32.2517 25.6671 33.4864 25.9136 34.8893H30.0854C30.332 33.4863 31.2283 32.2517 32.5463 31.5565C33.5784 31.0121 34.5105 30.2845 35.3526 29.415L35.556 29.1949C36.3829 28.3008 37.1623 27.2176 37.8725 25.9756L38.09 25.5949C41.6662 19.0434 42.748 9.57452 43.0741 4.54477H12.9189C12.9328 4.76358 12.948 4.98954 12.9648 5.22421C12.9656 5.2351 12.9665 5.2463 12.9672 5.25719C12.9856 5.51146 13.0053 5.76646 13.0262 6.02166C13.0267 6.02913 13.0274 6.0366 13.0279 6.04417C13.0944 6.85302 13.1732 7.66489 13.263 8.46711L13.3173 8.95222C13.9216 14.0883 15.1979 20.6314 17.8893 25.56L18.127 25.9755C18.6558 26.9 19.223 27.7365 19.8197 28.4728ZM10.754 27.1765C13.468 28.7249 16.187 29.0499 17.9903 29.0499C17.9904 29.0499 17.9906 29.0499 17.9907 29.0499C18.0615 29.0499 18.1303 29.0494 18.1973 29.0484C18.1962 29.0469 18.1951 29.0454 18.194 29.0439C18.0861 28.9027 17.9798 28.7594 17.8751 28.6141C17.8623 28.5964 17.8497 28.5782 17.8369 28.5605C17.7485 28.4369 17.6613 28.3116 17.5751 28.1851C17.5529 28.1526 17.5307 28.1201 17.5087 28.0874C17.4133 27.9454 17.3189 27.8025 17.2264 27.6571C17.2119 27.6344 17.1978 27.6111 17.1833 27.5882C17.1075 27.4681 17.0326 27.3469 16.9587 27.2245C16.9414 27.1959 16.9235 27.1685 16.9062 27.1397C15.3538 27.1101 13.1776 26.8012 11.1655 25.5762C9.10553 24.3221 7.3843 22.5745 6.04981 20.3823C4.652 18.0858 3.71619 15.3543 3.2683 12.264C3.00711 10.46 3.3103 9.07147 4.16977 8.13693C4.96044 7.27715 6.1721 6.8413 7.77094 6.8413C9.02033 6.8413 10.3524 7.11051 11.4827 7.42545C11.4303 6.88672 11.3853 6.36999 11.3468 5.87887C11.3458 5.86518 11.3445 5.85139 11.3435 5.8378C10.5117 5.55999 8.69253 5.03361 6.85066 5.03361C3.40644 5.03361 1.71014 6.80968 1.66475 10.4631C1.53722 20.7944 7.97864 25.5929 10.754 27.1765Z" fill="white"/>
<path d="M34.961 25.8469L36.3501 26.7146C35.8758 27.3972 35.3662 28.0175 34.8351 28.5579L33.618 27.483C34.0858 27.0069 34.5376 26.4564 34.961 25.8469Z" fill="white"/>
<path d="M38.531 17.1035L40.1526 17.4542C39.355 20.769 38.2903 23.5517 36.988 25.7249L35.5419 24.9459C36.7638 22.9067 37.7695 20.2681 38.531 17.1035Z" fill="white"/>
<path d="M7.47398 34.8971L7.47518 33.3201L8.87922 33.3209L8.88021 31.9897L10.5435 31.9908L10.5425 33.3221L11.9465 33.323L11.9454 34.9L10.5414 34.899L10.5404 36.2301L8.87714 36.2291L8.87813 34.8979L7.47398 34.8971Z" fill="white"/>
<path d="M43.6642 43.0858L43.6659 41.5088L44.8441 41.51L44.8453 40.3928L46.5086 40.3945L46.5074 41.5115L47.6858 41.5127L47.6839 43.0896L46.5057 43.0885L46.5045 44.2058L44.8413 44.2041L44.8425 43.0869L43.6642 43.0858Z" fill="white"/>
<path d="M49.0886 30.1945H50.6576V31.7714H49.0886V30.1945Z" fill="white"/>
<path d="M39.0049 34.8601H40.5739V36.4371H39.0049V34.8601Z" fill="white"/>
<path d="M13.7157 39.6045H15.2847V41.1815H13.7157V39.6045Z" fill="white"/>
</g>
<defs>
<clipPath id="clip0">
<rect width="56" height="53.0942" fill="white" transform="matrix(-1 0 0 1 56 0.312256)"/>
</clipPath>
</defs>
</svg>
