<svg width="59" height="59" viewBox="0 0 59 59" fill="none" xmlns="http://www.w3.org/2000/svg">
<g clip-path="url(#clip0)">
<path d="M57.8864 8.96686L58.6632 8.19007C59.1132 7.74009 59.1132 7.01043 58.6632 6.56033C58.2132 6.11046 57.4836 6.11046 57.0335 6.56033L56.2567 7.33712L55.4804 6.56079C55.2643 6.34473 54.9711 6.22327 54.6656 6.22327H53.3981L47.5123 0.337517C47.2962 0.121456 47.0031 0 46.6975 0H4.15098C1.86268 0 0.000976562 1.86159 0.000976562 4.15V25.7448C0.000976562 28.0331 1.86268 29.8948 4.15098 29.8948H14.1901L7.43915 36.6458C6.65534 37.4296 6.22367 38.4718 6.22367 39.5804C6.22367 40.6888 6.65534 41.7309 7.43915 42.5149L22.7089 57.7846C23.4927 58.5685 24.5349 59.0001 25.6434 59.0001C26.752 59.0001 27.7941 58.5685 28.578 57.7846L40.0145 46.3482C40.4646 45.8982 40.4646 45.1686 40.0145 44.7185C39.5645 44.2687 38.8348 44.2686 38.3849 44.7185L26.9482 56.1549C26.5997 56.5035 26.1363 56.6953 25.6434 56.6953C25.1506 56.6953 24.6871 56.5035 24.3386 56.1549L9.06878 40.8851C8.72031 40.5367 8.52833 40.0732 8.52833 39.5804C8.52833 39.0874 8.72031 38.624 9.06878 38.2756L38.8162 8.52817H54.1884L54.6272 8.96697L51.9625 11.6316C51.5112 11.4152 51.0061 11.2939 50.473 11.2939C48.5668 11.2939 47.016 12.8447 47.016 14.7509C47.016 16.657 48.5668 18.2079 50.473 18.2079C52.3792 18.2079 53.93 16.657 53.93 14.7509C53.93 14.2178 53.8086 13.7126 53.5922 13.2614L56.2568 10.5967L56.6956 11.0355V26.4076L45.7181 37.3853C45.2681 37.8353 45.2681 38.5649 45.7181 39.015C46.168 39.4649 46.8977 39.4649 47.3478 39.015L58.6629 27.6999C58.8789 27.4838 59.0004 27.1907 59.0004 26.8851V10.558C59.0004 10.2524 58.8789 9.95936 58.6629 9.74318L57.8864 8.96686ZM20.6944 20.6768C20.0588 20.6768 19.5417 20.1598 19.5417 19.5242C19.5417 18.8884 20.0588 18.3714 20.6944 18.3714C21.33 18.3714 21.8471 18.8884 21.8471 19.5242C21.8471 20.1597 21.33 20.6768 20.6944 20.6768ZM38.3389 6.22339C38.0333 6.22339 37.7401 6.34485 37.5241 6.56091L24.1232 19.9617C24.1414 19.8182 24.1519 19.6723 24.1519 19.524C24.1519 17.6176 22.6009 16.0666 20.6945 16.0666C18.7882 16.0666 17.2372 17.6176 17.2372 19.524C17.2372 21.4305 18.7881 22.9814 20.6945 22.9814C20.8428 22.9814 20.9887 22.9709 21.1322 22.9527L16.4949 27.59H4.15098C3.13347 27.59 2.30564 26.7622 2.30564 25.7447V4.15C2.30564 3.13249 3.13347 2.30466 4.15098 2.30466H46.2201L50.1389 6.22339H38.3389ZM50.473 15.903C49.8376 15.903 49.3207 15.386 49.3207 14.7506C49.3207 14.1152 49.8376 13.5983 50.473 13.5983C50.736 13.5983 50.978 13.6878 51.1721 13.8367C51.2027 13.8766 51.2352 13.9155 51.2716 13.952C51.308 13.9884 51.347 14.0209 51.3868 14.0514C51.5357 14.2456 51.6252 14.4876 51.6252 14.7505C51.6254 15.386 51.1084 15.903 50.473 15.903Z" fill="white"/>
<path d="M38.3264 34.09C38.632 34.09 38.9252 33.9686 39.1412 33.7525L41.7486 31.145C42.1986 30.695 42.1986 29.9654 41.7486 29.5153C41.2986 29.0654 40.569 29.0654 40.119 29.5153L38.3264 31.3079L32.6226 25.6042C32.1728 25.1544 31.443 25.1544 30.993 25.6042C30.543 26.0542 30.543 26.7839 30.993 27.234L37.5116 33.7525C37.7278 33.9686 38.021 34.09 38.3264 34.09Z" fill="white"/>
<path d="M47.2893 23.9746C46.8394 23.5248 46.1097 23.5248 45.6596 23.9746L44.1929 25.4413L42.5633 23.8118L44.03 22.3451C44.48 21.8951 44.48 21.1655 44.03 20.7154C43.58 20.2655 42.8503 20.2655 42.4002 20.7154L40.9336 22.1821L39.3039 20.5524L40.7706 19.0858C41.2206 18.6358 41.2207 17.9061 40.7706 17.456C40.3206 17.0063 39.591 17.0061 39.141 17.456L36.8595 19.7375C36.6434 19.9536 36.522 20.2467 36.522 20.5523C36.522 20.8579 36.6434 21.151 36.8595 21.3671L43.3781 27.8856C43.603 28.1106 43.898 28.2232 44.1929 28.2232C44.4878 28.2232 44.7828 28.1106 45.0077 27.8856L47.2892 25.6041C47.7393 25.1543 47.7393 24.4246 47.2893 23.9746Z" fill="white"/>
<path d="M34.5442 37.2237C35.111 37.5127 35.8051 37.287 36.0941 36.72C36.383 36.1529 36.1575 35.4591 35.5903 35.1702L26.9532 30.7702C26.5084 30.5435 25.9683 30.6291 25.6154 30.9821C25.2624 31.335 25.1768 31.8752 25.4035 32.3199L29.8035 40.957C30.007 41.3566 30.4115 41.5866 30.8312 41.5865C31.0071 41.5865 31.1859 41.5461 31.3533 41.4607C31.9203 41.1718 32.1459 40.478 31.8571 39.9109L31.5038 39.2172L33.8507 36.8702L34.5442 37.2237ZM30.4037 37.0581L29.0665 34.4332L31.6915 35.7705L30.4037 37.0581Z" fill="white"/>
<path d="M23.4966 46.1377C23.0466 46.5877 23.0465 47.3173 23.4966 47.7674C23.7216 47.9923 24.0165 48.1049 24.3114 48.1049C24.6063 48.1049 24.9013 47.9923 25.1262 47.7674L26.7559 46.1378C28.1038 44.7899 28.1038 42.5968 26.7559 41.2488C25.4748 39.9676 23.4307 39.9052 22.0738 41.0594C22.0316 41.0913 21.9906 41.1252 21.9522 41.1636L21.867 41.2488C21.6493 41.4665 21.3599 41.5863 21.0521 41.5863C20.7444 41.5863 20.455 41.4665 20.2373 41.2488C19.788 40.7995 19.788 40.0685 20.2373 39.6191L21.867 37.9894C22.3169 37.5395 22.3171 36.8098 21.867 36.3597C21.417 35.9099 20.6873 35.9098 20.2373 36.3597L18.6076 37.9893C17.2597 39.3372 17.2597 41.5304 18.6076 42.8784C19.2606 43.5313 20.1287 43.8909 21.052 43.8909C21.9741 43.8909 22.8411 43.5323 23.494 42.8807C23.4949 42.8799 23.4958 42.8792 23.4966 42.8784C23.9458 42.429 24.6769 42.429 25.1262 42.8784C25.3439 43.0961 25.4637 43.3853 25.4637 43.6931C25.4637 44.001 25.3439 44.2904 25.1262 44.5079L23.4966 46.1377Z" fill="white"/>
<path d="M19.7438 7.43907C19.1897 7.12632 18.4868 7.32176 18.1739 7.87603L10.7414 21.0419C10.4285 21.5961 10.6241 22.2989 11.1783 22.6118C11.3574 22.7129 11.5518 22.7609 11.7438 22.7609C12.1459 22.7609 12.5365 22.55 12.7483 22.1748L20.1808 9.009C20.4937 8.45473 20.2981 7.75181 19.7438 7.43907Z" fill="white"/>
<path d="M14.4246 10.3707C14.4246 8.46427 12.8737 6.91333 10.9673 6.91333C9.06082 6.91333 7.50977 8.46427 7.50977 10.3707C7.50977 12.2771 9.06071 13.8282 10.9671 13.8282C12.8736 13.8282 14.4246 12.2771 14.4246 10.3707ZM9.81445 10.3707C9.81445 9.73507 10.3315 9.21802 10.9671 9.21802C11.6028 9.21802 12.1198 9.73507 12.1198 10.3707C12.1198 11.0065 11.6028 11.5235 10.9671 11.5235C10.3315 11.5235 9.81445 11.0065 9.81445 10.3707Z" fill="white"/>
<path d="M42.8657 40.714C42.5615 40.714 42.2654 40.8373 42.051 41.0517C41.8367 41.266 41.7134 41.5633 41.7134 41.8663C41.7134 42.1695 41.8367 42.4668 42.051 42.681C42.2654 42.8954 42.5615 43.0187 42.8657 43.0187C43.1688 43.0187 43.4661 42.8955 43.6804 42.681C43.8948 42.4668 44.0181 42.1695 44.0181 41.8663C44.0181 41.5633 43.8948 41.266 43.6804 41.0517C43.4661 40.8374 43.1688 40.714 42.8657 40.714Z" fill="white"/>
</g>
<defs>
<clipPath id="clip0">
<rect width="59" height="59" fill="white"/>
</clipPath>
</defs>
</svg>
