<svg width="54" height="54" viewBox="0 0 54 54" fill="none" xmlns="http://www.w3.org/2000/svg">
<g clip-path="url(#clip0)">
<path d="M48.201 41.3245C47.8119 40.548 47.0306 40.0645 46.1614 40.0645C45.2921 40.0645 44.5109 40.548 44.1217 41.3245L41.4739 46.621C41.1218 47.3256 40.9355 48.1141 40.9355 48.9013C40.9355 51.7128 43.2227 53.9999 46.0342 53.9999H46.2877C49.1 53.9999 51.3872 51.7128 51.3872 48.9013C51.3872 48.1141 51.2009 47.3256 50.8488 46.621L48.201 41.3245ZM46.2885 52.258H46.035C44.1834 52.258 42.6775 50.7521 42.6775 48.9013C42.6775 48.3829 42.8004 47.864 43.0322 47.3996L45.6795 42.1032C45.8637 41.7358 46.4591 41.7358 46.6419 42.1032L49.2897 47.3996C49.5223 47.864 49.6452 48.3829 49.6452 48.9013C49.6452 50.7521 48.1393 52.258 46.2885 52.258Z" fill="white"/>
<path d="M51.3872 8.70968H50.5162V4.35484C50.5162 1.95372 48.5625 0 46.1613 0C43.7602 0 41.8065 1.95372 41.8065 4.35484V8.70968H40.9355C39.4951 8.70968 38.3226 9.88216 38.3226 11.3226C38.3226 12.763 39.4951 13.9355 40.9355 13.9355H41.8065V30.6416L44.1693 36.9421C44.4794 37.7676 45.2797 38.3226 46.1613 38.3226C47.0429 38.3226 47.8433 37.7676 48.1542 36.9421L50.5162 30.6416V13.9355H51.3872C52.8276 13.9355 54.0001 12.763 54.0001 11.3226C54.0001 9.88216 52.8276 8.70968 51.3872 8.70968ZM43.5484 4.35484C43.5484 2.91442 44.7209 1.74194 46.1613 1.74194C47.6018 1.74194 48.7743 2.91442 48.7743 4.35484V8.70968H43.5484V4.35484ZM46.5237 36.3289C46.4097 36.6304 45.9121 36.6295 45.7999 36.3297L43.9342 31.3548H48.3885L46.5237 36.3289ZM48.7743 15.6774H45.2904V17.4194H48.7743V19.1613H45.2904V20.9032H48.7743V22.6452H45.2904V24.3871H48.7743V26.129H45.2904V27.871H48.7743V29.6129H43.5484V13.9355H48.7743V15.6774ZM51.3872 12.1935H40.9355C40.455 12.1935 40.0646 11.8023 40.0646 11.3226C40.0646 10.8429 40.455 10.4516 40.9355 10.4516H51.3872C51.8677 10.4516 52.2581 10.8429 52.2581 11.3226C52.2581 11.8023 51.8677 12.1935 51.3872 12.1935Z" fill="white"/>
<path d="M27.9067 6.96774H28.7419C30.1824 6.96774 31.3548 5.79525 31.3548 4.35484V2.6129C31.3548 1.17249 30.1824 0 28.7419 0H4.35484C2.91442 0 1.74194 1.17249 1.74194 2.6129V4.35484C1.74194 5.79525 2.91442 6.96774 4.35484 6.96774H5.19008C5.01147 10.9743 3.62847 14.9038 1.21927 18.116L0 19.7422V49.6452C0 52.0463 1.95372 54 4.35484 54H28.7419C31.1431 54 33.0968 52.0463 33.0968 49.6452V19.7422L31.8775 18.116C29.4683 14.9038 28.0853 10.9743 27.9067 6.96774ZM3.48387 4.35484V2.6129C3.48387 2.13319 3.87428 1.74194 4.35484 1.74194H28.7419C29.2225 1.74194 29.6129 2.13319 29.6129 2.6129V4.35484C29.6129 4.83455 29.2225 5.22581 28.7419 5.22581H4.35484C3.87428 5.22581 3.48387 4.83455 3.48387 4.35484ZM28.7419 52.2581H4.35484C2.91442 52.2581 1.74194 51.0856 1.74194 49.6452V48.7742H5.22581V47.0323H1.74194V20.9032H26.129V19.1613H2.6129C5.24664 15.6485 6.75255 11.3485 6.93202 6.96774H26.1648C26.3442 11.3485 27.8501 15.6485 30.4839 19.1613H27.871V20.9032H31.3548V47.0323H6.96774V48.7742H31.3548V49.6452C31.3548 51.0856 30.1824 52.2581 28.7419 52.2581Z" fill="white"/>
<path d="M27.871 24.3871H5.22583V43.5484H27.871V24.3871ZM26.1291 41.8064H6.96777V26.129H26.1291V41.8064Z" fill="white"/>
<path d="M13.9355 40.0645H19.1613V36.5807H22.6452V31.3548H19.1613V27.871H13.9355V31.3548H10.4517V36.5807H13.9355V40.0645ZM12.1936 34.8387V33.0968H15.6775V29.6129H17.4194V33.0968H20.9033V34.8387H17.4194V38.3226H15.6775V34.8387H12.1936Z" fill="white"/>
</g>
<defs>
<clipPath id="clip0">
<rect width="54" height="54" fill="white"/>
</clipPath>
</defs>
</svg>
