<svg width="32" height="32" viewBox="0 0 32 32" fill="none" xmlns="http://www.w3.org/2000/svg">
<g clip-path="url(#clip0)">
<path d="M15.1854 8.3159L16.2007 11.3406C16.5634 12.4209 15.6648 13.5038 14.5834 13.326C13.8264 13.2194 13.1069 13.7615 12.9282 14.4825C12.5713 16.1048 13.4782 18.9857 14.8139 20.0999C15.3556 20.6393 16.2923 20.5653 16.8316 20.0236C17.5867 19.2293 18.9567 19.5507 19.3193 20.631L20.3346 23.6557C20.5526 24.484 20.122 25.3498 19.3658 25.6036L17.3133 26.2926C15.1886 26.9457 12.1185 23.5289 10.4142 18.4516C8.70987 13.3744 9.02442 8.76128 11.185 8.03605L13.2375 7.34707C14.0658 7.12909 14.9316 7.55968 15.1854 8.3159Z" fill="#1DA1F2"/>
</g>
<defs>
<clipPath id="clip0">
<rect width="22.9802" height="22.9802" fill="white" transform="matrix(0.445327 -0.895368 -0.895368 -0.445327 21.1704 31.4049)"/>
</clipPath>
</defs>
</svg>
