<svg width="56" height="56" viewBox="0 0 56 56" fill="none" xmlns="http://www.w3.org/2000/svg">
<path d="M37.7344 56H13.125C5.88788 56 0 50.1121 0 42.875V13.125C0 5.88788 5.88788 0 13.125 0H42.875C50.1121 0 56 5.88788 56 13.125V32.4844C55.8845 35.3867 51.7395 35.3846 51.625 32.4844V13.125C51.625 8.30025 47.6997 4.375 42.875 4.375H13.125C8.30025 4.375 4.375 8.30025 4.375 13.125V42.875C4.375 47.6997 8.30025 51.625 13.125 51.625H37.7344C40.6367 51.7405 40.6346 55.8855 37.7344 56ZM35.7656 12.0312C35.7656 10.8231 34.7863 9.84375 33.5781 9.84375H22.4219C19.5195 9.95925 19.5217 14.1042 22.4219 14.2188H33.5781C34.7863 14.2188 35.7656 13.2394 35.7656 12.0312ZM35.1094 48.0156C34.5509 48.0156 33.9923 47.8032 33.5654 47.3778L29.9245 43.7502C28.6833 42.513 28.0001 40.8679 28 39.1178C28 37.3676 28.6833 35.7225 29.9239 34.4856C29.9297 34.4798 33.5822 30.9181 33.5822 30.9181C34.4472 30.0745 35.8321 30.0922 36.6755 30.9571C37.5189 31.822 37.5015 33.2069 36.6366 34.0504L33.006 37.5907C32.1676 38.4 32.1707 39.8455 33.0128 40.6512L36.6533 44.2783C38.0368 45.6492 37.0312 48.0272 35.1094 48.0156ZM53.2322 53.189C59.1823 47.2153 54.887 36.8397 46.4297 36.8594H38.6094C35.707 36.9749 35.7092 41.1199 38.6094 41.2344H46.4297C49.2943 41.2344 51.625 43.565 51.625 46.4297C51.625 49.2943 49.3189 51.625 46.4844 51.625C43.584 51.7392 43.5824 55.885 46.4844 56C49.0416 56 51.438 55.0016 53.2322 53.189Z" fill="#1DA1F2"/>
</svg>
