<svg width="16" height="16" viewBox="0 0 16 16" fill="none" xmlns="http://www.w3.org/2000/svg">
<g clip-path="url(#clip0)">
<path d="M9.08019 15.9688H6.51292C6.0841 15.9688 5.73528 15.6206 5.73528 15.1926V9.41333H4.23748C3.80866 9.41333 3.45984 9.06506 3.45984 8.63721V6.16077C3.45984 5.73279 3.80866 5.38464 4.23748 5.38464H5.73528V4.14453C5.73528 2.91492 6.12214 1.86877 6.85392 1.11938C7.589 0.366577 8.61627 -0.03125 9.82469 -0.03125L11.7826 -0.0280762C12.2107 -0.0273437 12.5589 0.320801 12.5589 0.748047V3.04736C12.5589 3.47534 12.2102 3.82349 11.7815 3.82349L10.4633 3.82398C10.0612 3.82398 9.95886 3.90442 9.93696 3.92908C9.90088 3.96997 9.85795 4.08557 9.85795 4.40479V5.38452H11.6824C11.8198 5.38452 11.9529 5.41834 12.0672 5.48206C12.3139 5.61963 12.4673 5.87976 12.4673 6.16089L12.4663 8.63733C12.4663 9.06506 12.1175 9.41321 11.6887 9.41321H9.85795V15.1926C9.85795 15.6206 9.50901 15.9688 9.08019 15.9688ZM6.6751 15.0308H8.91801V8.99341C8.91801 8.70764 9.15101 8.47522 9.43721 8.47522H11.5265L11.5274 6.32263H9.43709C9.15088 6.32263 8.91801 6.09021 8.91801 5.80444V4.40479C8.91801 4.03833 8.95531 3.62158 9.23246 3.30835C9.56735 2.92969 10.0951 2.88599 10.463 2.88599L11.6191 2.8855V0.909668L9.82395 0.906738C7.88193 0.906738 6.6751 2.14746 6.6751 4.14453V5.80444C6.6751 6.09009 6.44223 6.32263 6.15602 6.32263H4.39966V8.47522H6.15602C6.44223 8.47522 6.6751 8.70764 6.6751 8.99341V15.0308ZM11.7808 0.909912H11.7809H11.7808Z" fill="#DDF3FC"/>
</g>
<defs>
<clipPath id="clip0">
<rect width="16" height="16" fill="white"/>
</clipPath>
</defs>
</svg>
