<svg width="47" height="47" viewBox="0 0 47 47" fill="none" xmlns="http://www.w3.org/2000/svg">
<rect width="47" height="47" fill="#1DA1F2"/>
<path d="M15.0427 21.6625C13.8851 21.3292 12.7275 21.1601 11.6015 21.1601C9.86262 21.1601 8.4117 21.5575 7.28665 22.0441C8.37127 18.0734 10.9768 11.222 16.1672 10.4504C16.6479 10.3789 17.0418 10.0313 17.173 9.56346L18.3074 5.50596C18.403 5.16282 18.3463 4.79553 18.1506 4.49775C17.9549 4.19997 17.6403 4.00128 17.2878 3.95297C16.9048 3.90071 16.5143 3.87408 16.1273 3.87408C9.89713 3.87408 3.72713 10.3769 1.12355 19.688C-0.404777 25.1506 -0.852921 33.3632 2.91169 38.5325C5.01832 41.425 8.09173 42.9696 12.0467 43.1239C12.0629 43.1244 12.0787 43.1249 12.095 43.1249C16.9748 43.1249 21.3019 39.8385 22.6182 35.1336C23.4046 32.321 23.0491 29.3713 21.6164 26.8259C20.199 24.309 17.8646 22.4745 15.0427 21.6625Z" fill="white" fill-opacity="0.25"/>
<path d="M45.589 26.8263C44.1716 24.309 41.8372 22.4745 39.0152 21.6625C37.8577 21.3292 36.7001 21.1601 35.5745 21.1601C33.8357 21.1601 32.3843 21.5575 31.2592 22.0441C32.3439 18.0734 34.9494 11.222 40.1403 10.4504C40.621 10.3789 41.0144 10.0313 41.146 9.56347L42.2804 5.50596C42.3761 5.16282 42.3194 4.79553 42.1237 4.49775C41.9284 4.19997 41.6139 4.00128 41.2609 3.95297C40.8783 3.90071 40.4879 3.87408 40.1004 3.87408C33.8702 3.87408 27.7002 10.3769 25.0961 19.688C23.5683 25.1506 23.1202 33.3632 26.8853 38.5335C28.9914 41.4255 32.0653 42.9706 36.0197 43.1244C36.036 43.1249 36.0518 43.1254 36.0685 43.1254C40.9478 43.1254 45.2755 39.839 46.5918 35.1341C47.3772 32.3215 47.0212 29.3713 45.589 26.8263Z" fill="white" fill-opacity="0.25"/>
</svg>
