<svg width="16" height="16" viewBox="0 0 16 16" fill="none" xmlns="http://www.w3.org/2000/svg">
<g clip-path="url(#clip0)">
<path d="M4.15369 16H0.0172119V4.854H4.15369V16ZM0.953735 15.0625H3.21716V5.7915H0.953735V15.0625Z" fill="#DDF3FC"/>
<path d="M16 16H11.9475L11.9492 11.0691C11.9662 10.2688 11.6432 9.60864 11.0852 9.3031C10.702 9.09326 10.2611 9.09265 9.84741 9.2948L9.81177 16H5.57056V4.854H9.81421V5.30701C11.1327 4.77246 12.5309 4.84961 13.7458 5.54456C15.1152 6.32788 16 7.77612 16 9.23413V16ZM12.8843 15.0625H15.0635V9.23413C15.0635 8.10657 14.3639 6.97791 13.2812 6.35852C12.7532 6.0564 12.1592 5.896 11.5636 5.89441C11.5608 5.89441 11.5579 5.89441 11.5549 5.89441C10.8884 5.89441 10.2253 6.0863 9.58374 6.46472L8.87781 6.8811V5.7915H6.50708V15.0625H8.88025L8.91357 8.77393L9.11963 8.6355C9.87829 8.12585 10.7811 8.06799 11.5347 8.48059C11.9504 8.70825 12.2954 9.06458 12.5323 9.51074C12.7748 9.96765 12.897 10.5115 12.8856 11.0839L12.8843 15.0625Z" fill="#DDF3FC"/>
<path d="M2.0769 4.15796C0.931641 4.15796 0 3.22534 0 2.07898C0 0.932617 0.931641 0 2.0769 0C3.22205 0 4.15369 0.932617 4.15369 2.07898C4.15369 3.22534 3.22205 4.15796 2.0769 4.15796ZM2.0769 0.9375C1.44812 0.9375 0.936523 1.44958 0.936523 2.07898C0.936523 2.7085 1.448 3.22058 2.0769 3.22058C2.70569 3.22058 3.21716 2.7085 3.21716 2.07898C3.21716 1.44958 2.70569 0.9375 2.0769 0.9375Z" fill="#DDF3FC"/>
</g>
<defs>
<clipPath id="clip0">
<rect width="16" height="16" fill="white"/>
</clipPath>
</defs>
</svg>
