<svg width="40" height="40" viewBox="0 0 40 40" fill="none" xmlns="http://www.w3.org/2000/svg">
<path d="M8.03722 4.95517C11.2325 1.75977 15.4811 0 20 0C24.5189 0 28.7675 1.75977 31.9628 4.95517C35.1582 8.15064 36.918 12.3991 36.918 16.9179C36.918 26.0595 28.2744 33.663 23.6307 37.7479C22.9854 38.3155 22.4281 38.8058 21.9841 39.2205C21.4279 39.7401 20.7139 39.9999 20.0001 39.9999C19.2861 39.9999 18.5722 39.7401 18.0159 39.2205C17.5719 38.8057 17.0147 38.3155 16.3693 37.7479C11.7257 33.663 3.08205 26.0595 3.08205 16.9179C3.08213 12.3991 4.84182 8.15064 8.03722 4.95517ZM17.917 35.9887C18.5765 36.5687 19.1459 37.0698 19.6154 37.5083C19.8311 37.7096 20.169 37.7097 20.3847 37.5083C20.8542 37.0696 21.4237 36.5687 22.0832 35.9886C26.4488 32.1483 34.575 25 34.575 16.918C34.575 8.88142 28.0368 2.34321 20.0001 2.34321C11.9636 2.34321 5.42534 8.88142 5.42534 16.918C5.42526 25 13.5514 32.1483 17.917 35.9887Z" fill="#1DA1F2"/>
<path d="M19.9995 8.82336C24.1105 8.82336 27.4551 12.1678 27.4551 16.2788C27.4551 20.3899 24.1105 23.7343 19.9995 23.7343C15.8885 23.7343 12.544 20.3899 12.544 16.2788C12.544 12.1678 15.8885 8.82336 19.9995 8.82336ZM19.9995 21.3911C22.8185 21.3911 25.1119 19.0977 25.1119 16.2788C25.1119 13.4599 22.8185 11.1664 19.9995 11.1664C17.1805 11.1664 14.8872 13.4599 14.8872 16.2788C14.8872 19.0977 17.1805 21.3911 19.9995 21.3911Z" fill="#1DA1F2"/>
</svg>
