<svg width="20" height="20" viewBox="0 0 20 20" fill="none" xmlns="http://www.w3.org/2000/svg">
<path d="M4.01861 2.47758C5.61627 0.879884 7.74053 0 9.99999 0C12.2594 0 14.3837 0.879884 15.9814 2.47758C17.5791 4.07532 18.459 6.19954 18.459 8.45896C18.459 13.0298 14.1372 16.8315 11.8153 18.8739C11.4927 19.1578 11.2141 19.4029 10.9921 19.6102C10.7139 19.87 10.3569 20 10 20C9.64303 20 9.28612 19.87 9.00795 19.6102C8.78596 19.4028 8.50733 19.1578 8.18467 18.8739C5.86283 16.8315 1.54103 13.0298 1.54103 8.45896C1.54107 6.19954 2.42091 4.07532 4.01861 2.47758ZM8.9585 17.9943C9.28823 18.2844 9.57295 18.5349 9.80772 18.7541C9.91557 18.8548 10.0845 18.8548 10.1924 18.7541C10.4271 18.5348 10.7119 18.2843 11.0416 17.9943C13.2244 16.0742 17.2875 12.5 17.2875 8.459C17.2875 4.44071 14.0184 1.1716 10.0001 1.1716C5.98178 1.1716 2.71267 4.44071 2.71267 8.459C2.71263 12.5 6.77568 16.0742 8.9585 17.9943Z" fill="#DDF3FC"/>
<path d="M10 4.41162C12.0555 4.41162 13.7278 6.08385 13.7278 8.13936C13.7278 10.1949 12.0555 11.8671 10 11.8671C7.94449 11.8671 6.27226 10.1949 6.27226 8.13936C6.27226 6.08385 7.94449 4.41162 10 4.41162ZM10 10.6955C11.4095 10.6955 12.5562 9.54878 12.5562 8.13932C12.5562 6.72987 11.4095 5.58315 10 5.58315C8.59051 5.58315 7.44382 6.72987 7.44382 8.13932C7.44382 9.54878 8.59051 10.6955 10 10.6955Z" fill="#DDF3FC"/>
</svg>
