<svg width="35" height="35" viewBox="0 0 35 35" fill="none" xmlns="http://www.w3.org/2000/svg">
<g clip-path="url(#clip0)">
<path d="M16.651 0.0202409C7.40754 0.460362 0.113153 8.15838 0.141194 17.4123C0.149732 20.2308 0.83017 22.8911 2.0305 25.2417L0.187566 34.1875C0.0878737 34.6714 0.524312 35.0951 1.00503 34.9813L9.77087 32.9045C12.023 34.0263 14.5525 34.6743 17.2297 34.7151C26.6774 34.8594 34.5551 27.3577 34.8496 17.9135C35.1652 7.78999 26.8099 -0.463574 16.651 0.0202409ZM27.1105 26.9695C24.5434 29.5366 21.1301 30.9504 17.4997 30.9504C15.3739 30.9504 13.3387 30.4735 11.4504 29.5329L10.2297 28.9247L4.85529 30.1981L5.98657 24.7064L5.38515 23.5287C4.40488 21.6089 3.90784 19.533 3.90784 17.3586C3.90784 13.728 5.32161 10.3149 7.88876 7.74763C10.433 5.20342 13.9019 3.76663 17.4999 3.76663C21.1304 3.76671 24.5435 5.18049 27.1106 7.74755C29.6778 10.3147 31.0915 13.7279 31.0916 17.3583C31.0915 20.9565 29.6547 24.4254 27.1105 26.9695Z" fill="white"/>
<path d="M25.924 21.123L22.5616 20.1576C22.1196 20.0307 21.6435 20.1561 21.3214 20.4843L20.4992 21.322C20.1525 21.6752 19.6264 21.7887 19.1675 21.6031C17.577 20.9594 14.2311 17.9845 13.3767 16.4965C13.1302 16.0672 13.1709 15.5306 13.4736 15.139L14.1915 14.2102C14.4727 13.8464 14.532 13.3577 14.3461 12.9371L12.9314 9.73764C12.5926 8.97132 11.6133 8.74824 10.9736 9.28931C10.0352 10.083 8.92172 11.2891 8.78636 12.6253C8.54772 14.9811 9.55804 17.9508 13.3786 21.5166C17.7924 25.6362 21.3269 26.1804 23.6282 25.6229C24.9335 25.3068 25.9766 24.0393 26.635 23.0015C27.0838 22.294 26.7294 21.3543 25.924 21.123Z" fill="white"/>
</g>
<defs>
<clipPath id="clip0">
<rect width="35" height="35" fill="white"/>
</clipPath>
</defs>
</svg>
