<?xml version="1.0" encoding="utf-8"?>
<!-- Generator: Adobe Illustrator 16.0.0, SVG Export Plug-In . SVG Version: 6.00 Build 0)  -->
<!DOCTYPE svg PUBLIC "-//W3C//DTD SVG 1.1//EN" "http://www.w3.org/Graphics/SVG/1.1/DTD/svg11.dtd">
<svg version="1.1" id="Layer_1" xmlns="http://www.w3.org/2000/svg" xmlns:xlink="http://www.w3.org/1999/xlink" x="0px" y="0px"
	 width="50px" height="44px" viewBox="165 135 50 44" enable-background="new 165 135 50 44" xml:space="preserve">
<g>
	<g>
		<defs>
			<rect id="SVGID_1_" x="163.334" y="135" width="51.666" height="42.691"/>
		</defs>
		<clipPath id="SVGID_2_">
			<use xlink:href="#SVGID_1_"  overflow="visible"/>
		</clipPath>
		<g id="p" clip-path="url(#SVGID_2_)">
			
				<image overflow="visible" enable-background="new    " width="113" height="101" id="Shape_5_1_" xlink:href="A9A2E8AF.png"  transform="matrix(0.136 0 0 0.136 175.1631 163.9609)">
			</image>
			<g id="Shape_3">
			</g>
			
				<image overflow="visible" enable-background="new    " width="245" height="151" id="Layer_1_2_" xlink:href="A9A2E8AA.png"  transform="matrix(0.136 0 0 0.136 181.689 135)">
			</image>
			<g id="Shape_4" opacity="0.502">
				<g>
					<path d="M185.224,165.184c0,0-3.603,0.467-5.575,2.176c0,0-2.068,2.354-2.312,3.264c0,0,1.631-3.404,7.206-3.807l5.304-0.137
						l0.407-1.631L185.224,165.184z"/>
				</g>
			</g>
			
				<image overflow="visible" enable-background="new    " width="279" height="210" id="Layer_2_1_" xlink:href="A9A2E8A9.png"  transform="matrix(0.136 0 0 0.136 177.0664 142.75)">
			</image>
		</g>
	</g>
	<g>
		<defs>
			<rect id="SVGID_3_" x="163.334" y="135" width="51.666" height="42.691"/>
		</defs>
		<clipPath id="SVGID_4_">
			<use xlink:href="#SVGID_3_"  overflow="visible"/>
		</clipPath>
		<g id="pharma-logo.psd" clip-path="url(#SVGID_4_)">
			<g id="capsule">
				<g id="Folder_3">
					<g id="Shape_2__x2B__Layer_3_copy_1_" enable-background="new    ">
						<defs>
							<path id="SVGID_5_" enable-background="new    " d="M199.476,145.062h-15.218l-2.536,10.197h14.964
								c0,0,4.947-0.855,5.706-5.167C202.392,150.092,203.574,146.565,199.476,145.062z"/>
						</defs>
						<clipPath id="SVGID_6_">
							<use xlink:href="#SVGID_5_"  overflow="visible"/>
						</clipPath>
						<g clip-path="url(#SVGID_6_)">
							
								<image overflow="visible" enable-background="new    " width="163" height="78" id="Shape_2__x2B__Layer_3_copy_2_" xlink:href="A9A2E8B4.jpg"  transform="matrix(0.136 0 0 0.136 181.5532 144.7891)">
							</image>
						</g>
					</g>
				</g>
				<g id="Folder_2">
					
						<image overflow="visible" enable-background="new    " width="155" height="78" id="Shape_2_copy__x2B__Layer_3_1_" xlink:href="A9A2E8B6.png"  transform="matrix(0.136 0 0 0.136 163.334 144.9253)">
					</image>
				</g>
			</g>
		</g>
	</g>
</g>
</svg>
